<svg xmlns="http://www.w3.org/2000/svg" width="607" height="931" viewBox="0 0 607 931" font-family="-apple-system, 'Segoe UI', Helvetica, Arial, sans-serif" role="img">
<title>Badly and well packed nodes</title><desc>A slim node (64 CPUs, 256 GB) and a fat node (64 CPUs, 1024 GB), drawn with CPUs across and memory up, packed badly and well with the same eleven jobs. Badly packed: a big high-memory job on the slim node uses up its memory, leaving 32 CPUs unavailable; low-memory jobs use up the fat node's CPUs, wasting 648 GB; job J (16 CPUs, 128 GB) cannot run on either node. Jobs are labelled A to K. Well packed: every job runs, J included, the slim node wastes 60 GB, and the fat node keeps 18 CPUs and 466 GB free for more jobs.</desc>
<defs><pattern id="waste" width="6" height="6" patternUnits="userSpaceOnUse" patternTransform="rotate(45)"><rect width="6" height="6" fill="#2c2c2a"/><line x1="0" y1="0" x2="0" y2="6" stroke="#6f6e69" stroke-width="1.2"/></pattern></defs>
<rect width="100%" height="100%" rx="8" fill="#1a1a19"/>
<text x="24.0" y="40.0" fill="#ffffff" font-size="16" font-weight="600" text-anchor="start">Badly and well packed nodes, with the same jobs</text>
<rect x="24" y="57" width="12" height="10" rx="2" fill="#3987e5"/>
<text x="42.0" y="66.0" fill="#c3c2b7" font-size="12" font-weight="400" text-anchor="start">Job with a low memory/CPU requirement</text>
<rect x="314.2" y="57" width="12" height="10" rx="2" fill="#d95926"/>
<text x="332.2" y="66.0" fill="#c3c2b7" font-size="12" font-weight="400" text-anchor="start">Job with a high memory/CPU requirement</text>
<rect x="24" y="77" width="12" height="10" rx="2" fill="url(#waste)"/>
<text x="42.0" y="86.0" fill="#c3c2b7" font-size="12" font-weight="400" text-anchor="start">Wasted</text>
<rect x="109.6" y="77" width="12" height="10" rx="2" fill="#252524"/>
<text x="127.6" y="86.0" fill="#c3c2b7" font-size="12" font-weight="400" text-anchor="start">Free</text>
<text x="24.0" y="126.0" fill="#ffffff" font-size="14" font-weight="600" text-anchor="start">Badly packed</text>
<text x="24.0" y="144.0" fill="#c3c2b7" font-size="12" font-weight="400" text-anchor="start">Job J cannot run: neither node has room for it.</text>
<text x="68.0" y="176.0" fill="#c3c2b7" font-size="12" font-weight="400" text-anchor="start">Waiting in the queue:</text>
<rect x="68.0" y="188.0" width="51.2" height="35.8" rx="1.5" fill="#d95926"/>
<text x="127.2" y="209.9" fill="#ffffff" font-size="11" font-weight="600" text-anchor="start">J: 16 CPUs, 128 GB</text>
<rect x="170.4" y="381.0" width="102.4" height="71.7" fill="url(#waste)"/>
<rect x="181.5" y="386.3" width="80.2" height="61.2" rx="3" fill="#1a1a19" fill-opacity="0.92"/>
<text x="221.6" y="399.3" fill="#c3c2b7" font-size="11" font-weight="400" text-anchor="middle">Unavailable</text>
<text x="221.6" y="413.6" fill="#c3c2b7" font-size="11" font-weight="400" text-anchor="middle">CPUs due to</text>
<text x="221.6" y="427.9" fill="#c3c2b7" font-size="11" font-weight="400" text-anchor="middle">memory</text>
<text x="221.6" y="442.2" fill="#c3c2b7" font-size="11" font-weight="400" text-anchor="middle">starvation</text>
<rect x="68.5" y="408.4" width="24.6" height="43.8" rx="1.5" fill="#d95926"/>
<text x="80.8" y="404.9" fill="#ffffff" font-size="10" font-weight="600" text-anchor="middle">A</text>
<rect x="94.1" y="397.2" width="24.6" height="10.2" rx="1.5" fill="#3987e5"/>
<text x="106.4" y="393.7" fill="#ffffff" font-size="10" font-weight="600" text-anchor="middle">E</text>
<rect x="119.7" y="388.8" width="18.2" height="7.4" rx="1.5" fill="#3987e5"/>
<text x="128.8" y="385.3" fill="#ffffff" font-size="10" font-weight="600" text-anchor="middle">G</text>
<rect x="138.9" y="383.2" width="31.0" height="4.6" rx="1.5" fill="#3987e5"/>
<text x="154.4" y="379.7" fill="#ffffff" font-size="10" font-weight="600" text-anchor="middle">H</text>
<rect x="68.0" y="381.0" width="204.8" height="71.7" fill="none" stroke="#383835" stroke-width="1"/>
<text x="68.0" y="466.7" fill="#898781" font-size="10" font-weight="400" text-anchor="middle">0</text>
<text x="272.8" y="466.7" fill="#898781" font-size="10" font-weight="400" text-anchor="middle">64</text>
<text x="170.4" y="466.7" fill="#898781" font-size="11" font-weight="400" text-anchor="middle">CPUs</text>
<text x="64.0" y="452.7" fill="#898781" font-size="10" font-weight="400" text-anchor="end">0</text>
<text x="64.0" y="389.0" fill="#898781" font-size="10" font-weight="400" text-anchor="end">256</text>
<text x="36.0" y="416.9" fill="#898781" font-size="11" text-anchor="middle" transform="rotate(-90 36.0 416.9)">Memory (GB)</text>
<text x="170.4" y="484.7" fill="#c3c2b7" font-size="12" font-weight="600" text-anchor="middle">slim node</text>
<rect x="344.8" y="166.0" width="204.8" height="181.4" fill="url(#waste)"/>
<rect x="352.9" y="233.3" width="188.6" height="46.9" rx="3" fill="#1a1a19" fill-opacity="0.92"/>
<text x="447.2" y="246.3" fill="#c3c2b7" font-size="11" font-weight="400" text-anchor="middle">Wasted memory which</text>
<text x="447.2" y="260.6" fill="#c3c2b7" font-size="11" font-weight="400" text-anchor="middle">memory-heavy jobs could have</text>
<text x="447.2" y="274.9" fill="#c3c2b7" font-size="11" font-weight="400" text-anchor="middle">needed</text>
<rect x="345.3" y="444.3" width="50.2" height="8.0" rx="1.5" fill="#3987e5"/>
<text x="370.4" y="440.8" fill="#ffffff" font-size="10" font-weight="600" text-anchor="middle">B</text>
<rect x="396.5" y="430.8" width="75.8" height="12.4" rx="1.5" fill="#3987e5"/>
<text x="434.4" y="427.3" fill="#ffffff" font-size="10" font-weight="600" text-anchor="middle">C</text>
<rect x="473.3" y="420.7" width="37.4" height="9.1" rx="1.5" fill="#3987e5"/>
<text x="492.0" y="417.2" fill="#ffffff" font-size="10" font-weight="600" text-anchor="middle">D</text>
<rect x="511.7" y="398.3" width="11.8" height="21.4" rx="1.5" fill="#d95926"/>
<text x="517.6" y="394.8" fill="#ffffff" font-size="10" font-weight="600" text-anchor="middle">F</text>
<rect x="524.5" y="364.7" width="11.8" height="32.6" rx="1.5" fill="#d95926"/>
<text x="530.4" y="361.2" fill="#ffffff" font-size="10" font-weight="600" text-anchor="middle">I</text>
<rect x="537.3" y="347.9" width="5.4" height="15.8" rx="1.5" fill="#d95926"/>
<text x="540.0" y="344.4" fill="#ffffff" font-size="10" font-weight="600" text-anchor="middle">K</text>
<rect x="344.8" y="166.0" width="204.8" height="286.7" fill="none" stroke="#383835" stroke-width="1"/>
<text x="344.8" y="466.7" fill="#898781" font-size="10" font-weight="400" text-anchor="middle">0</text>
<text x="549.6" y="466.7" fill="#898781" font-size="10" font-weight="400" text-anchor="middle">64</text>
<text x="447.2" y="466.7" fill="#898781" font-size="11" font-weight="400" text-anchor="middle">CPUs</text>
<text x="340.8" y="452.7" fill="#898781" font-size="10" font-weight="400" text-anchor="end">0</text>
<text x="340.8" y="174.0" fill="#898781" font-size="10" font-weight="400" text-anchor="end">1024</text>
<text x="312.8" y="309.4" fill="#898781" font-size="11" text-anchor="middle" transform="rotate(-90 312.8 309.4)">Memory (GB)</text>
<text x="447.2" y="484.7" fill="#c3c2b7" font-size="12" font-weight="600" text-anchor="middle">fat node</text>
<text x="24.0" y="536.7" fill="#ffffff" font-size="14" font-weight="600" text-anchor="start">Well packed</text>
<text x="24.0" y="554.7" fill="#c3c2b7" font-size="12" font-weight="400" text-anchor="start">Every job runs, J included, with room for more jobs.</text>
<rect x="68.0" y="791.8" width="204.8" height="16.8" fill="url(#waste)"/>
<rect x="101.6" y="791.0" width="137.6" height="18.3" rx="3" fill="#1a1a19" fill-opacity="0.92"/>
<text x="170.4" y="804.0" fill="#c3c2b7" font-size="11" font-weight="400" text-anchor="middle">Minimal memory waste</text>
<rect x="68.5" y="855.0" width="50.2" height="8.0" rx="1.5" fill="#3987e5"/>
<text x="93.6" y="851.5" fill="#ffffff" font-size="10" font-weight="600" text-anchor="middle">B</text>
<rect x="119.7" y="841.5" width="75.8" height="12.4" rx="1.5" fill="#3987e5"/>
<text x="157.6" y="838.0" fill="#ffffff" font-size="10" font-weight="600" text-anchor="middle">C</text>
<rect x="196.5" y="831.5" width="37.4" height="9.1" rx="1.5" fill="#3987e5"/>
<text x="215.2" y="828.0" fill="#ffffff" font-size="10" font-weight="600" text-anchor="middle">D</text>
<rect x="234.9" y="825.9" width="31.0" height="4.6" rx="1.5" fill="#3987e5"/>
<text x="250.4" y="822.4" fill="#ffffff" font-size="10" font-weight="600" text-anchor="middle">H</text>
<rect x="266.9" y="809.1" width="5.4" height="15.8" rx="1.5" fill="#d95926"/>
<text x="269.6" y="805.6" fill="#ffffff" font-size="10" font-weight="600" text-anchor="middle">K</text>
<rect x="68.0" y="791.8" width="204.8" height="71.7" fill="none" stroke="#383835" stroke-width="1"/>
<text x="68.0" y="877.4" fill="#898781" font-size="10" font-weight="400" text-anchor="middle">0</text>
<text x="272.8" y="877.4" fill="#898781" font-size="10" font-weight="400" text-anchor="middle">64</text>
<text x="170.4" y="877.4" fill="#898781" font-size="11" font-weight="400" text-anchor="middle">CPUs</text>
<text x="64.0" y="863.4" fill="#898781" font-size="10" font-weight="400" text-anchor="end">0</text>
<text x="64.0" y="799.8" fill="#898781" font-size="10" font-weight="400" text-anchor="end">256</text>
<text x="36.0" y="827.6" fill="#898781" font-size="11" text-anchor="middle" transform="rotate(-90 36.0 827.6)">Memory (GB)</text>
<text x="170.4" y="895.4" fill="#c3c2b7" font-size="12" font-weight="600" text-anchor="middle">slim node</text>
<rect x="492.0" y="576.7" width="57.6" height="130.5" fill="#252524"/>
<rect x="503.0" y="611.4" width="35.5" height="61.2" rx="3" fill="#1a1a19" fill-opacity="0.92"/>
<text x="520.8" y="624.4" fill="#c3c2b7" font-size="11" font-weight="400" text-anchor="middle">Room</text>
<text x="520.8" y="638.7" fill="#c3c2b7" font-size="11" font-weight="400" text-anchor="middle">for</text>
<text x="520.8" y="653.0" fill="#c3c2b7" font-size="11" font-weight="400" text-anchor="middle">more</text>
<text x="520.8" y="667.3" fill="#c3c2b7" font-size="11" font-weight="400" text-anchor="middle">jobs</text>
<rect x="345.3" y="819.1" width="24.6" height="43.8" rx="1.5" fill="#d95926"/>
<text x="357.6" y="815.6" fill="#ffffff" font-size="10" font-weight="600" text-anchor="middle">A</text>
<rect x="370.9" y="807.9" width="24.6" height="10.2" rx="1.5" fill="#3987e5"/>
<text x="383.2" y="804.4" fill="#ffffff" font-size="10" font-weight="600" text-anchor="middle">E</text>
<rect x="396.5" y="785.5" width="11.8" height="21.4" rx="1.5" fill="#d95926"/>
<text x="402.4" y="782.0" fill="#ffffff" font-size="10" font-weight="600" text-anchor="middle">F</text>
<rect x="409.3" y="777.1" width="18.2" height="7.4" rx="1.5" fill="#3987e5"/>
<text x="418.4" y="773.6" fill="#ffffff" font-size="10" font-weight="600" text-anchor="middle">G</text>
<rect x="428.5" y="743.5" width="11.8" height="32.6" rx="1.5" fill="#d95926"/>
<text x="434.4" y="740.0" fill="#ffffff" font-size="10" font-weight="600" text-anchor="middle">I</text>
<rect x="441.3" y="707.7" width="50.2" height="34.8" rx="1.5" fill="#d95926"/>
<text x="466.4" y="704.2" fill="#ffffff" font-size="10" font-weight="600" text-anchor="middle">J</text>
<rect x="344.8" y="576.7" width="204.8" height="286.7" fill="none" stroke="#383835" stroke-width="1"/>
<text x="344.8" y="877.4" fill="#898781" font-size="10" font-weight="400" text-anchor="middle">0</text>
<text x="549.6" y="877.4" fill="#898781" font-size="10" font-weight="400" text-anchor="middle">64</text>
<text x="447.2" y="877.4" fill="#898781" font-size="11" font-weight="400" text-anchor="middle">CPUs</text>
<text x="340.8" y="863.4" fill="#898781" font-size="10" font-weight="400" text-anchor="end">0</text>
<text x="340.8" y="584.7" fill="#898781" font-size="10" font-weight="400" text-anchor="end">1024</text>
<text x="312.8" y="720.1" fill="#898781" font-size="11" text-anchor="middle" transform="rotate(-90 312.8 720.1)">Memory (GB)</text>
<text x="447.2" y="895.4" fill="#c3c2b7" font-size="12" font-weight="600" text-anchor="middle">fat node</text>
<line x1="24" y1="502.7" x2="583.0" y2="502.7" stroke="#2c2c2a" stroke-width="1"/>
</svg>
